<svg width="29" height="20" viewBox="0 0 29 20" fill="none" xmlns="http://www.w3.org/2000/svg">
    <path opacity="0.5" d="M11.6008 20H17.4005C22.8682 20 25.6028 20 27.3007 18.5936C28.9985 17.1872 29 14.9252 29 10.4V10.4C29 9.07213 27.9221 8 26.5942 8H2.40129C1.07342 8 0.00128883 9.07213 0.00128883 10.4V10.4C0.00128883 14.9252 0.00128891 17.1884 1.69916 18.5936C3.39704 19.9988 6.13452 20 11.6008 20Z" fill="#FF0707"/>
    <path d="M11.5928 0H17.4073C22.8897 0 25.6317 1.30896e-07 27.334 1.22541C28.5607 2.10714 28.9043 3.37757 29 5.4902V5.4902C29 6.09663 28.5084 6.58824 27.902 6.58824H1.09804C0.491609 6.58824 0 6.09663 0 5.4902V5.4902C0.0957 3.37647 0.43935 2.10824 1.66605 1.22541C3.36835 1.30896e-07 6.1103 0 11.5928 0ZM15.225 12.3529C14.9366 12.3529 14.66 12.4397 14.456 12.5941C14.2521 12.7486 14.1375 12.9581 14.1375 13.1765C14.1375 13.3949 14.2521 13.6044 14.456 13.7588C14.66 13.9132 14.9366 14 15.225 14H17.4C17.6884 14 17.965 13.9132 18.169 13.7588C18.3729 13.6044 18.4875 13.3949 18.4875 13.1765C18.4875 12.9581 18.3729 12.7486 18.169 12.5941C17.965 12.4397 17.6884 12.3529 17.4 12.3529H15.225ZM5.8 12.3529C5.51158 12.3529 5.23497 12.4397 5.03102 12.5941C4.82708 12.7486 4.7125 12.9581 4.7125 13.1765C4.7125 13.3949 4.82708 13.6044 5.03102 13.7588C5.23497 13.9132 5.51158 14 5.8 14H11.6C11.8884 14 12.165 13.9132 12.369 13.7588C12.5729 13.6044 12.6875 13.3949 12.6875 13.1765C12.6875 12.9581 12.5729 12.7486 12.369 12.5941C12.165 12.4397 11.8884 12.3529 11.6 12.3529H5.8Z" fill="#FF3E3E"/>
</svg>
