<svg width="29" height="20" viewBox="0 0 83 57" fill="none" xmlns="http://www.w3.org/2000/svg">
    <path d="M14.9289 56.8821V53.3528C14.9289 51.9996 13.9286 51.1174 12.2142 51.1174C11.3572 51.1174 10.4285 51.3527 9.78557 52.1175C9.28579 51.4703 8.57158 51.1174 7.50011 51.1174C6.78557 51.1174 6.07169 51.2938 5.5 51.9409V51.2351H4V56.8821H5.5V53.7644C5.5 52.7646 6.14295 52.2938 7.14317 52.2938C8.14273 52.2938 8.64317 52.8233 8.64317 53.7644V56.8821H10.1432V53.7644C10.1432 52.7646 10.8571 52.2938 11.7857 52.2938C12.7859 52.2938 13.2857 52.8233 13.2857 53.7644V56.8821H14.9289ZM37.1428 51.2351H34.7145V49.5292H33.2145V51.2351H31.8574V52.3525H33.2142V54.941C33.2142 56.2352 33.8572 56.9997 35.5716 56.9997C36.2145 56.9997 36.9284 56.8234 37.4289 56.5881L37 55.5292C36.5715 55.7644 36.0717 55.8234 35.7144 55.8234C35.0002 55.8234 34.7145 55.4705 34.7145 54.882V52.3525H37.1428V51.2351ZM49.8574 51.1172C49.0003 51.1172 48.429 51.4703 48.0717 51.9409V51.2351H46.5717V56.8821H48.0717V53.7057C48.0717 52.7646 48.5715 52.2351 49.5001 52.2351C49.7858 52.2351 50.1431 52.2941 50.4287 52.3527L50.8573 51.1764C50.5716 51.1174 50.1431 51.1174 49.8574 51.1174M30.6431 51.7059C29.9285 51.294 28.9286 51.1177 27.8572 51.1177C26.1431 51.1177 25.0003 51.8235 25.0003 52.9412C25.0003 53.8825 25.8574 54.4118 27.3574 54.5883L28.0716 54.6473C28.8574 54.7647 29.2859 54.9412 29.2859 55.2355C29.2859 55.6471 28.7145 55.9413 27.7143 55.9413C26.7141 55.9413 25.9286 55.6471 25.4285 55.3531L24.7143 56.2942C25.5001 56.7647 26.5716 57 27.6427 57C29.6428 57 30.7859 56.2355 30.7859 55.1765C30.7859 54.1765 29.8573 53.647 28.4285 53.4707L27.7143 53.4117C27.0714 53.3528 26.5716 53.2354 26.5716 52.8825C26.5716 52.4706 27.0714 52.2354 27.8572 52.2354C28.7145 52.2354 29.5716 52.5293 30.0001 52.7059L30.6431 51.7059ZM70.5004 51.1177C69.6431 51.1177 69.0717 51.4706 68.7144 51.9412V51.2353H67.2144V56.8824H68.7144V53.7059C68.7144 52.7649 69.2145 52.2354 70.1428 52.2354C70.4289 52.2354 70.7861 52.2943 71.0718 52.353L71.5003 51.1767C71.2146 51.1177 70.7861 51.1177 70.5004 51.1177ZM51.3574 54.0589C51.3574 55.7647 52.7858 57 55.0003 57C56.0002 57 56.7144 56.8237 57.4286 56.3531L56.7144 55.3531C56.1431 55.706 55.5717 55.8823 54.9287 55.8823C53.7144 55.8823 52.8574 55.1765 52.8574 54.0589C52.8574 53.0001 53.7144 52.2941 54.9287 52.2354C55.5717 52.2354 56.1431 52.4117 56.7144 52.7649L57.4286 51.7648C56.7144 51.294 56.0002 51.1177 55.0003 51.1177C52.7858 51.1177 51.3574 52.353 51.3574 54.0589ZM65.2146 54.0589V51.2353H63.7146V51.9412C63.2145 51.4119 62.5003 51.1177 61.5717 51.1177C59.6432 51.1177 58.1432 52.353 58.1432 54.0589C58.1432 55.7647 59.6432 57 61.5717 57C62.5716 57 63.2861 56.706 63.7146 56.1766V56.8824H65.2146V54.0589ZM59.7144 54.0589C59.7144 53.0588 60.5002 52.2354 61.7858 52.2354C63.0001 52.2354 63.8575 53.0001 63.8575 54.0589C63.8575 55.0589 63.0001 55.8823 61.7858 55.8823C60.5002 55.8234 59.7144 55.0589 59.7144 54.0589ZM41.786 51.1177C39.7859 51.1177 38.3572 52.2941 38.3572 54.0589C38.3572 55.8236 39.7856 57 41.8573 57C42.8572 57 43.8574 56.7647 44.6432 56.2355L43.9286 55.3531C43.3573 55.706 42.6431 55.9413 41.9289 55.9413C41.0002 55.9413 40.0716 55.5884 39.8572 54.5881H44.9289V54.1178C45.0004 52.2941 43.7149 51.1177 41.786 51.1177ZM41.7857 52.1764C42.714 52.1764 43.3573 52.6472 43.4998 53.5296H39.9284C40.0713 52.7649 40.7142 52.1764 41.7857 52.1764ZM79 54.0589V49H77.5V51.9412C76.9999 51.4119 76.2857 51.1177 75.3571 51.1177C73.4285 51.1177 71.9285 52.353 71.9285 54.0589C71.9285 55.7647 73.4285 57 75.3571 57C76.3573 57 77.0715 56.706 77.5 56.1766V56.8824H79V54.0589ZM73.5001 54.0589C73.5001 53.0588 74.2856 52.2354 75.5715 52.2354C76.7858 52.2354 77.6428 53.0001 77.6428 54.0589C77.6428 55.0589 76.7858 55.8823 75.5715 55.8823C74.2856 55.8234 73.5001 55.0589 73.5001 54.0589ZM23.3568 54.0589V51.2353H21.8568V51.9412C21.3567 51.4119 20.6425 51.1177 19.7139 51.1177C17.7854 51.1177 16.2854 52.353 16.2854 54.0589C16.2854 55.7647 17.7854 57 19.7139 57C20.7141 57 21.4283 56.706 21.8568 56.1766V56.8824H23.3568V54.0589ZM17.7854 54.0589C17.7854 53.0588 18.5712 52.2354 19.8567 52.2354C21.071 52.2354 21.9284 53.0001 21.9284 54.0589C21.9284 55.0589 21.071 55.8823 19.8567 55.8823C18.5712 55.8234 17.7854 55.0589 17.7854 54.0589Z" fill="black"/>
    <path d="M30 5H52V40H30V5Z" fill="#FF5F00"/>
    <path d="M31.3491 22.5C31.3491 15.3126 35.1531 8.93748 41 4.81238C36.7031 1.81244 31.2788 0 25.3613 0C11.3418 0 0 10.0623 0 22.5C0 34.9376 11.3418 45 25.3609 45C31.2785 45 36.7027 43.1876 41 40.1873C35.1531 36.1249 31.3491 29.6874 31.3491 22.5Z" fill="#EB001B"/>
    <path d="M82.9997 22.5C82.9997 34.9374 71.3813 45 57.0204 45C50.9586 45 45.402 43.1876 41 40.1873C47.0618 36.0625 50.8866 29.6874 50.8866 22.5C50.8866 15.3126 46.9895 8.93748 41 4.81238C45.4017 1.81244 50.9586 0 57.0204 0C71.3813 0 82.9997 10.125 82.9997 22.5Z" fill="#F79E1B"/>
</svg>
