<svg width="29" height="20" viewBox="0 0 39 13" fill="none" xmlns="http://www.w3.org/2000/svg">
    <path d="M20.1699 4.15595C20.1476 5.9669 21.7334 6.97743 22.9279 7.5783C24.1552 8.19474 24.5674 8.59008 24.5625 9.14142C24.5534 9.9851 23.5836 10.3575 22.6761 10.3719C21.0928 10.3973 20.1721 9.93069 19.4403 9.57781L18.8699 12.3328C19.6042 12.682 20.9639 12.9866 22.3738 13C25.6835 13 27.8487 11.3136 27.8605 8.6989C27.8734 5.3805 23.4139 5.19682 23.4443 3.71359C23.4548 3.26384 23.8706 2.78389 24.7816 2.66186C25.2325 2.60022 26.4773 2.55304 27.8887 3.2239L28.4426 0.558415C27.6836 0.273153 26.7081 -6.84049e-08 25.4937 -6.84049e-08C22.3785 -6.84049e-08 20.1875 1.70937 20.1699 4.15595ZM33.7652 0.229593C33.1608 0.229593 32.6515 0.593482 32.4242 1.1519L27.6965 12.8042H31.0038L31.6619 10.9267H35.7033L36.0851 12.8042H39L36.4563 0.229593H33.7652ZM34.2278 3.62647L35.1823 8.34838H32.5684L34.2278 3.62647ZM16.16 0.22975L13.5531 12.8041H16.7046L19.3103 0.229436L16.16 0.22975ZM11.4978 0.22975L8.21757 8.78838L6.89066 1.51107C6.73496 0.698686 6.12011 0.229593 5.4373 0.229593H0.0751055L0 0.59474C1.10084 0.841317 2.35158 1.23902 3.10934 1.66455C3.57307 1.92449 3.7053 2.15173 3.85765 2.76943L6.37086 12.8042H9.70125L14.8072 0.229593L11.4978 0.22975Z" fill="url(#paint0_linear_591_10)"/>
    <defs>
        <linearGradient id="paint0_linear_591_10" x1="1792.99" y1="39.078" x2="1831.83" y2="-1295.97" gradientUnits="userSpaceOnUse">
            <stop stop-color="#222357"/>
            <stop offset="1" stop-color="#254AA5"/>
        </linearGradient>
    </defs>
</svg>
